# Blender v2.79 (sub 0) OBJ File: 'CurrentsModel.blend'
# www.blender.org
mtllib shelfNormals.mtl
o Bookshelf_Cube_3.001
v 0.432049 0.465948 0.152400
v -0.446351 0.465948 0.152400
v -0.446351 0.487377 0.152400
v 0.432049 0.487377 0.152400
v 0.432049 0.798430 0.152400
v -0.446351 0.798430 0.152400
v -0.446351 0.818074 0.152400
v 0.432049 0.818074 0.152400
v 0.432049 0.148111 0.152400
v 0.450049 0.001536 0.152400
v 0.450049 1.144536 0.152400
v 0.432049 1.126536 0.152400
v -0.446351 1.126536 0.152400
v -0.464351 1.144536 0.152400
v -0.464351 0.001536 0.152400
v -0.446351 0.148111 0.152400
v 0.432049 0.148112 -0.145600
v 0.432049 0.465948 -0.145600
v -0.446351 0.465948 -0.145600
v -0.446351 0.148112 -0.145600
v 0.450049 0.001536 -0.152400
v 0.450049 1.144536 -0.152400
v -0.464351 0.001536 -0.152400
v -0.464351 1.144536 -0.152400
v 0.432049 0.487378 -0.145600
v 0.432049 0.798430 -0.145600
v -0.446351 0.798430 -0.145600
v -0.446351 0.487378 -0.145600
v 0.432049 0.818074 -0.145600
v 0.432049 1.126536 -0.145600
v -0.446351 1.126536 -0.145600
v -0.446351 0.818074 -0.145600
vt 0.006586 0.234012
vt 0.006586 0.226622
vt 0.327960 0.226622
vt 0.327960 0.234012
vt 0.006586 0.119355
vt 0.006586 0.112581
vt 0.327960 0.112581
vt 0.327960 0.119355
vt 0.006586 0.006207
vt 0.000000 0.000000
vt 0.334545 0.000000
vt 0.327960 0.006207
vt 0.006586 0.343618
vt 0.000000 0.394165
vt 0.327960 0.343618
vt 0.334545 0.394165
vt 0.111515 0.394165
vt 0.227800 0.394165
vt 0.227800 0.697083
vt 0.111515 0.697083
vt 0.000000 0.788330
vt 0.000000 0.394165
vt 0.111515 0.394165
vt 0.111515 0.788330
vt 0.669091 0.000000
vt 0.669091 0.394165
vt 0.334545 0.394165
vt 0.334545 0.000000
vt 0.780606 0.000000
vt 0.780606 0.394165
vt 0.227800 0.394165
vt 0.339315 0.394165
vt 0.339315 0.709497
vt 0.227800 0.709497
vt 0.339315 0.394165
vt 0.450830 0.394165
vt 0.450830 0.709497
vt 0.339315 0.709497
vt 0.564633 0.697083
vt 0.450830 0.697083
vt 0.450830 0.394165
vt 0.564633 0.394165
vt 0.781945 0.697083
vt 0.669091 0.697083
vt 0.669091 0.394165
vt 0.781945 0.394165
vt 0.781945 0.394165
vt 0.890973 0.394165
vt 0.890973 0.697083
vt 0.781946 0.697083
vt 0.668885 0.806689
vt 0.559857 0.806689
vt 0.559857 0.697083
vt 0.668885 0.697083
vt 0.559857 1.000000
vt 0.450830 1.000000
vt 0.450830 0.697083
vt 0.559857 0.697083
vt 0.668885 0.697083
vt 0.777912 0.697083
vt 0.777912 0.806689
vt 0.668885 0.806689
vt 0.890973 0.394165
vt 1.000000 0.394165
vt 1.000000 0.697083
vt 0.890973 0.697083
vt 0.445854 0.816764
vt 0.336827 0.816764
vt 0.336827 0.709497
vt 0.445854 0.709497
vt 0.998660 0.302917
vt 0.889633 0.302917
vt 0.889633 0.000000
vt 0.998660 0.000000
vt 0.336827 0.816764
vt 0.227800 0.816764
vt 0.227800 0.709497
vt 0.336827 0.709497
vt 0.780606 0.000000
vt 0.889633 0.000000
vt 0.889633 0.302917
vt 0.780606 0.302917
vt 0.886939 0.803456
vt 0.777912 0.803456
vt 0.777912 0.697083
vt 0.886939 0.697083
vt 0.220542 1.000000
vt 0.111515 1.000000
vt 0.111515 0.697083
vt 0.220542 0.697083
vt 0.109027 0.894704
vt 0.000000 0.894704
vt 0.000000 0.788330
vt 0.109027 0.788330
vn -0.0000 -0.0000 1.0000
vn 1.0000 0.0000 0.0000
vn 0.0000 0.0000 -1.0000
vn -1.0000 0.0000 0.0000
vn 0.0000 1.0000 0.0000
vn 0.0000 -1.0000 -0.0000
usemtl None
s 1
f 1/1/1 4/2/1 3/3/1 2/4/1
f 5/5/1 8/6/1 7/7/1 6/8/1
f 12/9/1 11/10/1 14/11/1 13/12/1
f 5/5/1 4/2/1 1/1/1 9/13/1 10/14/1 11/10/1 12/9/1 8/6/1
f 9/13/1 16/15/1 15/16/1 10/14/1
f 17/17/1 18/18/1 19/19/1 20/20/1
f 21/21/2 22/22/2 11/23/2 10/24/2
f 23/25/3 24/26/3 22/27/3 21/28/3
f 15/29/4 14/30/4 24/26/4 23/25/4
f 11/31/5 22/32/5 24/33/5 14/34/5
f 21/35/6 10/36/6 15/37/6 23/38/6
f 25/39/1 26/40/1 27/41/1 28/42/1
f 29/43/1 30/44/1 31/45/1 32/46/1
f 9/47/5 17/48/5 20/49/5 16/50/5
f 1/51/4 18/52/4 17/53/4 9/54/4
f 2/55/6 19/56/6 18/57/6 1/58/6
f 16/59/2 20/60/2 19/61/2 2/62/2
f 4/63/5 25/64/5 28/65/5 3/66/5
f 5/67/4 26/68/4 25/69/4 4/70/4
f 6/71/6 27/72/6 26/73/6 5/74/6
f 3/75/2 28/76/2 27/77/2 6/78/2
f 8/79/5 29/80/5 32/81/5 7/82/5
f 12/83/4 30/84/4 29/85/4 8/86/4
f 13/87/6 31/88/6 30/89/6 12/90/6
f 7/91/2 32/92/2 31/93/2 13/94/2
f 13/12/1 14/11/1 15/16/1 16/15/1 2/4/1 3/3/1 6/8/1 7/7/1
